<?xml version="1.0" encoding="utf-8"?>
<svg viewBox="0 0 500 500" xmlns="http://www.w3.org/2000/svg" xmlns:bx="https://boxy-svg.com">
  <defs>
    <linearGradient id="color-1" bx:pinned="true">
      <title>legs</title>
      <stop style="stop-color: rgb(219, 255, 102);"/>
    </linearGradient>
    <linearGradient id="color-2" bx:pinned="true">
      <title>bird line fill</title>
      <stop style="stop-color: rgba(191, 233, 247, 0.29);"/>
    </linearGradient>
    <linearGradient id="color-5" bx:pinned="true">
      <title>line</title>
      <stop style="stop-color: rgb(102, 56, 56);"/>
    </linearGradient>
    <linearGradient id="color-0" bx:pinned="true">
      <title>white</title>
      <stop style="stop-color: rgb(255, 255, 255);"/>
    </linearGradient>
  </defs>
  <rect width="500" height="500" style="fill: rgb(191, 233, 247); pointer-events: none;">
    <title>background</title>
  </rect>
  <g style="pointer-events: none; visibility: hidden;" transform="matrix(1.074966, 0, 0, 1.074966, -30.707804, -1.310054)">
    <title>bird og</title>
    <path d="M 332.957 190.3 C 335.654 224.805 306.423 252.775 267.665 252.775 C 240.586 252.775 191.698 254.585 165.329 228.942 C 153.956 217.882 106.154 176.784 113.172 171.02 C 163.892 129.361 222.061 119.842 261.273 124.972 C 280.509 127.489 297.702 133.483 309.907 143.728 C 323.824 155.41 331.513 171.864 332.957 190.3 Z" style="filter: none; stroke: rgb(112, 137, 31); fill: rgba(18, 18, 18, 0.25); paint-order: fill; stroke-width: 1.46908px;" transform="matrix(0.970248, 0.242112, -0.242112, 0.970248, 55.539253, -74.93928)" bx:origin="0.998 0.502">
      <title>wing L</title>
    </path>
    <ellipse style="filter: none; stroke: rgb(112, 137, 31); fill: rgba(18, 18, 18, 0.25); paint-order: fill; stroke-width: 1.46908px;" cx="383.023" cy="144.42" rx="28.803" ry="28.803">
      <title>head circle</title>
    </ellipse>
    <path d="M 337.596 120.164 C 337.596 123.274 348.386 133.853 349.482 151.957 C 357.734 167.615 372.383 186.522 374.383 205.971 C 380.392 264.393 332.42 286.169 323.451 286.211 C 307.543 286.286 279.99 136.071 279.99 120.164 C 279.99 104.256 292.886 91.36 308.793 91.36 C 324.7 91.36 337.596 104.256 337.596 120.164 Z" style="filter: none; stroke: rgb(112, 137, 31); fill: rgba(18, 18, 18, 0.25); paint-order: fill; stroke-width: 1.46908px;" transform="matrix(0.396993, 0.917822, -0.917822, 0.396993, 370.723716, -186.698015)">
      <title>neck</title>
    </path>
    <g transform="matrix(1, 0, 0, 1, -13.075887, 57.240635)">
      <title>foot L</title>
      <path d="M 280.796 130.623 C 276.181 138.521 272.038 147.323 257.749 139.266 C 238.102 135.275 190.055 133.889 177.273 137.14 C 170.476 138.868 169.264 121.172 179.368 122.472 C 214.748 127.026 285.412 122.727 280.796 130.623 Z" style="filter: none; stroke: rgb(112, 137, 31); paint-order: fill; stroke-width: 1.46908px; fill: url(#color-1);" transform="matrix(0.436422, 0.899742, -0.899742, 0.436422, 215.274792, -84.154726)" bx:origin="0.026 0.367">
        <title>leg L</title>
      </path>
      <path d="M 187.576 218.31 C 181.716 222.418 180.54 222.958 168.658 220.169 C 156.775 217.38 152.037 223.212 150.612 219.955 C 149.188 216.7 165.024 208.524 175.08 208.524 C 185.137 208.524 193.435 214.201 187.576 218.31 Z" style="filter: none; stroke: rgb(112, 137, 31); paint-order: fill; stroke-width: 1.46908px; fill: url(#color-1);" transform="matrix(0.983113, -0.183001, 0.183001, 0.983113, -17.326848, 43.458342)" bx:origin="1.956 -6.944">
        <title>heel L</title>
      </path>
      <g style="filter: none;" transform="matrix(1.099893, -0.068437, 0.064626, 1.038645, 23.578424, -135.156631)" bx:origin="0.5 -2.345">
        <title>pinky L</title>
        <path d="M 167.234 365.771 C 165.793 368.384 164.401 374.607 158.632 371.868 C 152.126 368.78 144.949 371.484 143.273 370.967 C 140.673 370.165 141.113 362.45 143.743 361.051 C 147.389 359.113 155.62 361.815 159.302 360.935 C 164.266 359.748 168.242 363.942 167.234 365.771 Z" style="stroke: rgb(112, 137, 31); paint-order: fill; stroke-width: 1.3716px; fill: url(#color-1);" transform="matrix(-0.423356, -0.905963, 0.905963, -0.423356, -112.129011, 661.513929)"/>
        <path d="M 176.833 383.02 C 177.015 385.398 161.233 388.336 158.73 389.579 C 156.577 390.641 156.094 380.84 158.104 379.387 C 160.887 377.379 163.201 381.423 170.485 375.103 C 173.869 372.162 176.679 381.009 176.833 383.02 Z" style="stroke: rgb(112, 137, 31); paint-order: fill; stroke-width: 1.37182px; fill: url(#color-1);" transform="matrix(0.676845, 0.736126, -0.736126, 0.676845, 335.174761, 0.663671)"/>
        <path d="M 197.123 380.036 C 192.296 385.019 181.375 390.533 179.047 389.339 C 177.003 388.291 178.732 382.667 180.362 380.839 C 182.619 378.303 182.337 381.462 188.142 373.484 C 190.837 369.776 197.159 377.295 197.123 380.036 Z" style="stroke: rgb(112, 137, 31); paint-order: fill; stroke-width: 1.37151px; fill: url(#color-1);" transform="matrix(0.930945, 0.365159, -0.365159, 0.930945, 152.078084, -42.201898)"/>
      </g>
      <g style="filter: none;" transform="matrix(1.038645, -0.064626, 0.064626, 1.038645, 32.364632, -135.703323)" bx:origin="0.306 -1.931">
        <title>medium L</title>
        <path d="M 179.361 367.394 C 177.96 363.103 152.349 361.71 149.103 362.625 C 146.256 363.427 146.793 371.065 149.679 372.465 C 153.682 374.405 155.902 368.656 166.519 374.761 C 171.452 377.599 180.047 369.491 179.361 367.394 Z" style="stroke: rgb(112, 137, 31); paint-order: fill; stroke-width: 1.41169px; fill: url(#color-1);" transform="matrix(-0.609916, -0.792466, 0.792466, -0.609916, -29.39075, 723.246884)"/>
        <path d="M 198.231 385.978 C 196.459 388.638 194.747 394.972 187.651 392.184 C 179.65 389.041 170.823 391.793 168.762 391.267 C 165.564 390.451 166.106 382.598 169.34 381.174 C 173.825 379.201 183.947 381.952 188.475 381.056 C 194.581 379.848 199.471 384.117 198.231 385.978 Z" style="stroke: rgb(112, 137, 31); paint-order: fill; stroke-width: 1.41169px; fill: url(#color-1);" transform="matrix(0.948075, 0.318048, -0.318048, 0.948075, 132.454245, -37.973435)"/>
        <path d="M 222.596 395.589 C 217.984 393.695 199.12 401.433 196.144 400.331 C 193.533 399.364 194.362 390.153 197.104 388.466 C 200.906 386.124 202.719 393.06 212.85 385.697 C 217.555 382.274 223.325 393.06 222.596 395.589 Z" style="stroke: rgb(112, 137, 31); paint-order: fill; stroke-width: 1.41169px; fill: url(#color-1);" transform="matrix(0.968901, 0.24745, -0.24745, 0.968901, 103.670033, -39.406737)"/>
      </g>
      <g style="filter: none;" transform="matrix(1.131065, -0.070376, 0.064626, 1.038645, 18.936581, -134.867813)" bx:origin="0.519 -1.72">
        <title>index R</title>
        <path d="M 169.296 370.622 C 168.385 373.115 168.565 379.052 161.13 376.439 C 152.745 373.493 145.248 376.072 143.168 375.579 C 139.941 374.815 141.683 365.112 144.312 363.777 C 147.96 361.928 154.774 366.849 158.765 366.01 C 164.147 364.877 169.934 368.878 169.296 370.622 Z" style="stroke: rgb(112, 137, 31); paint-order: fill; stroke-width: 1.35186px; fill: url(#color-1);" transform="matrix(-0.245896, -0.969296, 0.969296, -0.245896, -165.268093, 611.870565)"/>
        <path d="M 176.969 390.867 C 177.178 393.85 159.037 397.538 156.16 399.097 C 153.685 400.43 153.13 388.131 155.44 386.308 C 158.639 383.788 161.299 388.863 169.672 380.932 C 173.561 377.241 176.792 388.344 176.969 390.867 Z" style="stroke: rgb(112, 137, 31); paint-order: fill; stroke-width: 1.35206px; fill: url(#color-1);" transform="matrix(-0.328665, -0.944447, 0.944447, -0.328665, -148.186521, 674.050776)"/>
        <path d="M 193.285 400.915 C 188.047 405.57 176.198 410.721 173.672 409.606 C 171.454 408.627 170.184 399.305 171.952 397.597 C 174.401 395.228 177.242 402.247 183.54 394.795 C 186.464 391.331 193.324 398.355 193.285 400.915 Z" style="stroke: rgb(112, 137, 31); paint-order: fill; stroke-width: 1.35255px; fill: url(#color-1);" transform="matrix(0.836819, 0.54748, -0.54748, 0.836819, 249.713148, -34.184682)"/>
      </g>
    </g>
    <path d="M 307.192 198.304 C 306.298 232.179 289.935 237.079 263.088 278.35 C 236.24 319.62 237.795 234.765 238.689 200.888 C 239.583 167.013 247.595 165.389 264.772 165.389 C 281.946 165.389 308.086 164.429 307.192 198.304 Z" style="filter: none; stroke: rgb(112, 137, 31); fill: rgba(18, 18, 18, 0.25); paint-order: fill; stroke-width: 1.46908px;" transform="matrix(0.20009, 0.979777, -0.979777, 0.20009, 391.631453, -132.051216)" bx:origin="0.557 0.068">
      <title>thigh L</title>
    </path>
    <ellipse style="filter: none; stroke: rgb(112, 137, 31); fill: rgba(18, 18, 18, 0.25); paint-order: fill; stroke-width: 1.46908px;" cx="255.923" cy="188.198" rx="81.648" ry="81.648">
      <title>body circle</title>
    </ellipse>
    <path d="M 276.442 216.95 C 276.442 255.144 258.939 260.667 231.169 307.195 C 203.398 353.726 202.66 258.059 202.66 219.865 C 202.66 181.672 211.251 179.839 229.77 179.839 C 248.286 179.839 276.442 178.758 276.442 216.95 Z" style="filter: none; stroke: rgb(112, 137, 31); fill: rgba(18, 18, 18, 0.25); paint-order: fill; stroke-width: 1.46908px;" transform="matrix(0.809791, 0.586719, -0.586719, 0.809791, 157.70128, -113.906683)" bx:origin="0.703 0.046">
      <title>thigh R</title>
    </path>
    <path d="M 139.026 239.698 C 126.802 225.246 84.225 170.671 92.914 163.139 C 155.717 108.698 214.411 94.849 260.118 103.823 C 282.558 108.229 302.46 118.323 315.869 132.788 C 316.456 133.32 316.568 133.637 316.646 133.536 C 321.333 127.452 366.186 117.907 378.058 116.043 C 379.671 115.763 381.33 115.617 383.023 115.617 C 398.93 115.617 411.826 128.513 411.826 144.42 C 411.826 160.027 399.412 172.736 383.919 173.209 C 383.916 173.21 383.912 173.21 383.909 173.21 C 379.572 173.35 344.424 213.941 320.301 239.076 C 316.861 243.415 312.309 247.409 308.085 250.996 C 302.138 256.047 297.633 258.194 297.748 258.362 C 285.87 265.284 271.52 270.1 255.919 269.846 C 224.397 269.852 167.348 273.181 139.026 239.698 Z" style="filter: none; stroke: rgb(112, 137, 31); fill: rgba(18, 18, 18, 0.25); paint-order: fill; stroke-width: 1.46908px;">
      <title>body</title>
    </path>
    <g transform="matrix(1, 0, 0, 1, -13.075887, 57.240635)">
      <title>foot R</title>
      <path d="M 212.425 315.386 C 210.256 320.706 208.298 338.274 191.795 330.441 C 170.664 326.563 117.067 322.653 104.601 325.812 C 97.973 327.493 92.842 310.291 103.544 311.555 C 141.024 315.982 214.597 310.065 212.425 315.386 Z" style="filter: none; stroke: rgb(112, 137, 31); paint-order: fill; stroke-width: 1.46908px; fill: url(#color-1);" transform="matrix(0.480803, 0.876829, -0.876829, 0.480803, 391.98051, -18.700921)" bx:origin="0.994 0.485">
        <title>leg R</title>
      </path>
      <path d="M 190.27 318.919 C 188.222 325.15 182.612 319.164 170.618 319.164 C 158.625 319.164 143.624 331.462 145.671 325.232 C 147.717 319.001 165.004 307.096 176.998 307.096 C 188.991 307.096 192.316 312.687 190.27 318.919 Z" style="filter: none; stroke: rgb(112, 137, 31); paint-order: fill; stroke-width: 1.46908px; fill: url(#color-1);" transform="matrix(0.998309, -0.058127, 0.058127, 0.998309, -7.703286, 16.761104)" bx:origin="3.06 -8.358">
        <title>heel R</title>
      </path>
      <g style="filter: none;" transform="matrix(1.055493, 0, 0, 0.984945, 39.674213, -107.714844)" bx:origin="1.028 -7.114">
        <title>index R</title>
        <path d="M 190.37 433.923 C 188.858 438.313 166.514 439.738 163.752 438.798 C 161.333 437.981 162.319 430.17 164.921 428.737 C 168.53 426.756 170.07 432.634 179.71 426.39 C 184.187 423.488 191.106 431.78 190.37 433.923 Z" style="stroke: rgb(112, 137, 31); paint-order: fill; stroke-width: 1.44006px; fill: url(#color-1);" transform="matrix(0.983774, 0.17941, -0.17941, 0.983774, 80.443962, -24.630933)"/>
        <path d="M 212.924 431.788 C 213.172 434.107 191.708 436.976 188.305 438.188 C 185.377 439.224 184.721 429.66 187.453 428.243 C 191.238 426.283 194.385 430.229 204.291 424.062 C 208.892 421.192 212.715 429.826 212.924 431.788 Z" style="stroke: rgb(112, 137, 31); paint-order: fill; stroke-width: 1.43999px; fill: url(#color-1);" transform="matrix(0.996426, 0.084469, -0.084469, 0.996426, 37.107919, -15.296686)"/>
        <path d="M 233.709 430.263 C 229.541 428.424 213.742 435.93 211.064 434.866 C 208.712 433.927 208.695 424.989 210.945 423.353 C 214.066 421.08 216.202 427.81 224.428 420.665 C 228.248 417.342 234.138 427.81 233.709 430.263 Z" style="stroke: rgb(112, 137, 31); paint-order: fill; stroke-width: 1.44004px; fill: url(#color-1);" transform="matrix(0.987259, 0.159123, -0.159123, 0.987259, 70.846462, -29.799688)"/>
      </g>
      <g style="filter: none;" transform="matrix(0.958395, 0, 0, 0.984945, 55.543972, -107.714844)" bx:origin="0.619 -7.715">
        <title>medium R</title>
        <path d="M 211.599 442.46 C 211.21 447.461 178.613 449.084 174.118 448.016 C 170.18 447.082 168.344 438.183 171.605 436.553 C 176.129 434.293 180.898 440.991 192.582 433.878 C 198.011 430.571 211.79 440.016 211.599 442.46 Z" style="stroke: rgb(112, 137, 31); paint-order: fill; stroke-width: 1.51193px; fill: url(#color-1);" transform="matrix(0.981017, 0.19392, -0.19392, 0.981017, 89.092645, -28.626044)"/>
        <path d="M 242.18 443.298 C 238.668 448.568 208.408 450.281 205.052 449.155 C 202.112 448.173 206.099 438.791 210.053 437.073 C 215.54 434.691 215.579 441.751 230.558 434.252 C 237.519 430.766 243.895 440.724 242.18 443.298 Z" style="stroke: rgb(112, 137, 31); paint-order: fill; stroke-width: 1.51192px; fill: url(#color-1);" transform="matrix(0.993308, 0.115493, -0.115493, 0.993308, 52.484363, -22.829315)"/>
        <path d="M 275.928 441.09 C 268.511 442.88 243.575 447.537 239.722 446.128 C 236.349 444.898 236.559 437.23 241.079 433.646 C 247.19 428.8 243.309 440.546 262.026 431.173 C 276.323 423.663 282.308 447.716 275.928 441.09 Z" style="stroke: rgb(112, 137, 31); paint-order: fill; stroke-width: 1.51191px; fill: url(#color-1);" transform="matrix(0.999971, -0.007677, 0.007677, 0.999971, -3.355281, 1.993124)"/>
      </g>
      <g style="filter: none;" transform="matrix(1.009508, 0, 0, 0.984945, 47.337929, -107.714844)" bx:origin="0.963 -3.633">
        <title>pinky R</title>
        <path d="M 186.742 446.719 C 184.633 452.272 158.009 454.074 154.8 452.89 C 151.991 451.853 153.729 441.969 156.919 440.159 C 161.348 437.65 162.749 445.087 174.64 437.188 C 180.168 433.517 187.775 444.007 186.742 446.719 Z" style="stroke: rgb(112, 137, 31); paint-order: fill; stroke-width: 1.47326px; fill: url(#color-1);" transform="matrix(0.824619, 0.565688, -0.565688, 0.824619, 281.467801, -18.216829)"/>
        <path d="M 212.623 455.283 C 212.719 458.199 186.835 461.808 182.665 463.322 C 179.077 464.629 179.125 452.605 182.508 450.825 C 187.201 448.362 190.614 453.323 202.979 445.568 C 208.726 441.962 212.545 452.816 212.623 455.283 Z" style="stroke: rgb(112, 137, 31); paint-order: fill; stroke-width: 1.47324px; fill: url(#color-1);" transform="matrix(0.877703, 0.479205, -0.479205, 0.877703, 241.628527, -38.527991)"/>
        <path d="M 237.165 464.551 C 232.352 462.228 213.011 471.714 209.909 470.364 C 207.188 469.177 207.843 457.887 210.641 455.818 C 214.523 452.947 216.551 461.449 226.866 452.423 C 231.657 448.227 237.862 461.449 237.165 464.551 Z" style="stroke: rgb(112, 137, 31); paint-order: fill; stroke-width: 1.47326px; fill: url(#color-1);" transform="matrix(0.836819, 0.54748, -0.54748, 0.836819, 288.756616, -46.686518)"/>
      </g>
    </g>
    <path d="M 317.667 193.084 C 320.393 228.251 290.875 256.76 251.738 256.76 C 224.394 256.76 175.027 258.604 148.399 232.468 C 136.916 221.196 76.678 182.683 83.765 176.808 C 134.981 134.349 205.082 119.429 245.283 126.5 C 264.003 129.793 280.395 136.832 292.841 146.964 C 307.123 158.592 316.21 174.292 317.667 193.084 Z" style="filter: none; stroke: rgb(112, 137, 31); fill: rgba(18, 18, 18, 0.25); paint-order: fill; stroke-width: 1.46908px;" transform="matrix(0.98653, -0.163578, 0.163578, 0.98653, -28.510284, 35.369804)">
      <title>wing R</title>
    </path>
    <path d="M 431.737 138.861 C 431.109 140.538 425.908 141.897 420.122 141.897 C 414.335 141.897 410.153 140.538 410.781 138.861 C 411.41 137.184 416.61 135.825 422.397 135.825 C 428.184 135.825 432.366 137.184 431.737 138.861 Z" style="filter: none; stroke: rgb(112, 137, 31); paint-order: fill; stroke-width: 1.46908px; fill: rgba(255, 255, 255, 0.78);" transform="matrix(-0.24482, -0.969569, 0.969569, -0.24482, 377.030724, 571.651856)" bx:origin="0.02 0.522">
      <title>flair</title>
    </path>
    <path d="M 404.212 155.317 C 403.665 155.37 407.025 152.881 408.992 148.466 C 411.659 142.481 410.405 137.722 413.656 141.563 C 417.083 145.612 417.422 145.265 420.565 147.085 C 430.082 152.598 435.704 159.966 433.111 162.829 C 431.89 164.178 429.919 160.753 425.627 159.635 C 420.919 158.409 417.003 158.983 410.939 159.766 C 408.972 160.021 406.732 155.072 404.212 155.317 Z" style="filter: none; stroke: rgb(112, 137, 31); paint-order: fill; stroke-width: 1.46908px; fill: rgba(255, 255, 255, 0.78);">
      <title>becco</title>
    </path>
    <ellipse style="filter: none; fill: rgba(32, 4, 4, 0.25); stroke: rgb(159, 12, 9); paint-order: stroke; stroke-width: 2.93816px;" cx="392.765" cy="138.276" rx="3.287" ry="3.287">
      <title>eye</title>
    </ellipse>
  </g>
  <path d="M 497.223 90.511 L 662.002 210.23 L 599.062 403.939 L 395.384 403.939 L 332.444 210.23 Z" style="fill: rgb(216, 216, 216);" transform="matrix(0.961489, 0.274842, -0.274842, 0.961489, -156.182419, -151.255463)" bx:shape="n-gon 497.223 263.77 173.259 173.259 5 0 1@378d9374"/>
  <g style="" transform="matrix(1.074966, 0, 0, 1.074966, -30.707804, -1.310054)">
    <title>bird shape fill</title>
    <path d="M 123.938 118.393 C 175.862 93.752 227.361 94.405 264.077 104.665 C 275.186 107.214 285.597 111.176 294.808 116.386 C 302.78 120.712 309.952 126.327 316.043 132.952 C 316.215 133.122 316.334 133.263 316.42 133.365 C 316.472 133.423 316.524 133.48 316.576 133.538 C 316.606 133.56 316.627 133.561 316.646 133.536 C 321.333 127.452 366.186 117.907 378.058 116.043 C 378.387 115.986 378.719 115.934 379.052 115.888 C 381.326 115.57 383.604 115.531 385.841 115.753 C 389.078 116.067 392.157 116.917 394.99 118.213 C 396.654 118.974 398.233 119.889 399.709 120.94 C 402.668 123.038 405.258 125.714 407.286 128.892 C 408.111 130.179 408.837 131.536 409.452 132.952 C 410.013 134.241 410.481 135.58 410.85 136.959 C 410.98 137.443 411.097 137.933 411.202 138.426 C 411.968 142.009 412.025 145.635 411.443 149.126 C 411.267 150.198 411.032 151.25 410.741 152.278 C 410.056 154.701 409.061 156.994 407.803 159.111 C 405.279 163.377 401.638 167.026 397.074 169.569 C 396.273 170.017 395.449 170.428 394.604 170.8 C 394.523 170.836 394.441 170.871 394.36 170.906 C 391.478 172.413 385.993 186.29 369.996 194.39 C 358.901 208.18 347.363 229.131 330.306 238.688 C 324.635 241.865 319.114 244.258 313.773 245.988 C 312.715 246.973 311.637 247.933 310.562 248.869 C 309.371 249.943 308.149 250.981 306.896 251.984 C 304.807 253.681 302.938 255.002 301.442 255.99 C 300.237 256.801 299.01 257.58 297.76 258.327 C 297.747 258.343 297.743 258.354 297.748 258.362 C 296.997 258.8 296.236 259.229 295.466 259.649 C 291.595 261.796 287.531 263.637 283.307 265.141 C 274.859 268.197 265.631 270.004 255.919 269.846 C 236.338 269.85 206.908 271.136 180.632 264.084 C 175.7 265.923 170.396 268.025 164.663 270.488 C 141.213 280.561 141.125 268.609 149.938 249.912 C 145.971 246.96 142.306 243.576 139.026 239.698 C 136.311 236.489 132.1 231.301 127.285 225.088 C 104.895 213.764 79.176 200.56 83.048 196.094 C 87.558 190.893 92.315 185.949 97.266 181.266 C 92.48 172.411 90.204 165.488 92.914 163.139 C 104.962 152.695 116.859 143.745 128.542 136.164 C 123.639 126.879 121.079 119.749 123.938 118.393 Z" style="filter: none; stroke: rgb(112, 137, 31); paint-order: fill; stroke-width: 0px; fill: rgb(249, 179, 179);">
      <title>body fill</title>
    </path>
  </g>
  <g style="filter: none;" transform="matrix(1.074966, 0, 0, 1.074966, -30.707804, -1.310054)">
    <title>bird colour</title>
    <path d="M 332.957 190.3 C 335.654 224.805 306.423 252.775 267.665 252.775 C 240.586 252.775 191.698 254.585 165.329 228.942 C 153.956 217.882 106.154 176.784 113.172 171.02 C 163.892 129.361 222.061 119.842 261.273 124.972 C 280.509 127.489 297.702 133.483 309.907 143.728 C 323.824 155.41 331.513 171.864 332.957 190.3 Z" style="filter: none; paint-order: fill; stroke-width: 1.46908px; fill: url(#color-2); stroke-opacity: 0.96;" transform="matrix(0.970248, 0.242112, -0.242112, 0.970248, 55.539253, -74.93928)" bx:origin="0.998 0.502">
      <title>wing L</title>
    </path>
    <ellipse style="filter: none; paint-order: fill; stroke-width: 1.46908px; fill: url(#color-2); stroke-opacity: 0.96;" cx="383.023" cy="144.42" rx="28.803" ry="28.803">
      <title>head circle</title>
    </ellipse>
    <g transform="matrix(1, 0, 0, 1, -13.075887, 57.240635)">
      <title>foot L</title>
      <path d="M 280.796 130.623 C 276.181 138.521 272.038 147.323 257.749 139.266 C 238.102 135.275 190.055 133.889 177.273 137.14 C 170.476 138.868 169.264 121.172 179.368 122.472 C 214.748 127.026 285.412 122.727 280.796 130.623 Z" style="filter: none; paint-order: fill; stroke-width: 1.46908px; fill: url(#color-1); stroke-opacity: 0.96;" transform="matrix(0.436422, 0.899742, -0.899742, 0.436422, 215.274792, -84.154726)" bx:origin="0.026 0.367">
        <title>leg L</title>
      </path>
      <path d="M 187.576 218.31 C 181.716 222.418 180.54 222.958 168.658 220.169 C 156.775 217.38 152.037 223.212 150.612 219.955 C 149.188 216.7 165.024 208.524 175.08 208.524 C 185.137 208.524 193.435 214.201 187.576 218.31 Z" style="filter: none; paint-order: fill; stroke-width: 1.46908px; fill: url(#color-1); stroke-opacity: 0.96;" transform="matrix(0.983113, -0.183001, 0.183001, 0.983113, -17.326848, 43.458342)" bx:origin="1.956 -6.944">
        <title>heel L</title>
      </path>
      <g style="filter: none;" transform="matrix(1.099893, -0.068437, 0.064626, 1.038645, 23.578424, -135.156631)" bx:origin="0.5 -2.345">
        <title>pinky L</title>
        <path d="M 167.234 365.771 C 165.793 368.384 164.401 374.607 158.632 371.868 C 152.126 368.78 144.949 371.484 143.273 370.967 C 140.673 370.165 141.113 362.45 143.743 361.051 C 147.389 359.113 155.62 361.815 159.302 360.935 C 164.266 359.748 168.242 363.942 167.234 365.771 Z" style="paint-order: fill; stroke-width: 1.3716px; fill: url(#color-1); stroke-opacity: 0.96;" transform="matrix(-0.423356, -0.905963, 0.905963, -0.423356, -112.129011, 661.513929)"/>
        <path d="M 176.833 383.02 C 177.015 385.398 161.233 388.336 158.73 389.579 C 156.577 390.641 156.094 380.84 158.104 379.387 C 160.887 377.379 163.201 381.423 170.485 375.103 C 173.869 372.162 176.679 381.009 176.833 383.02 Z" style="paint-order: fill; stroke-width: 1.37182px; fill: url(#color-1); stroke-opacity: 0.96;" transform="matrix(0.676845, 0.736126, -0.736126, 0.676845, 335.174761, 0.663671)"/>
        <path d="M 197.123 380.036 C 192.296 385.019 181.375 390.533 179.047 389.339 C 177.003 388.291 178.732 382.667 180.362 380.839 C 182.619 378.303 182.337 381.462 188.142 373.484 C 190.837 369.776 197.159 377.295 197.123 380.036 Z" style="paint-order: fill; stroke-width: 1.37151px; fill: url(#color-1); stroke-opacity: 0.96;" transform="matrix(0.930945, 0.365159, -0.365159, 0.930945, 152.078084, -42.201898)"/>
      </g>
      <g style="filter: none;" transform="matrix(1.038645, -0.064626, 0.064626, 1.038645, 32.364632, -135.703323)" bx:origin="0.306 -1.931">
        <title>medium L</title>
        <path d="M 179.361 367.394 C 177.96 363.103 152.349 361.71 149.103 362.625 C 146.256 363.427 146.793 371.065 149.679 372.465 C 153.682 374.405 155.902 368.656 166.519 374.761 C 171.452 377.599 180.047 369.491 179.361 367.394 Z" style="paint-order: fill; stroke-width: 1.41169px; fill: url(#color-1); stroke-opacity: 0.96;" transform="matrix(-0.609916, -0.792466, 0.792466, -0.609916, -29.39075, 723.246884)"/>
        <path d="M 198.231 385.978 C 196.459 388.638 194.747 394.972 187.651 392.184 C 179.65 389.041 170.823 391.793 168.762 391.267 C 165.564 390.451 166.106 382.598 169.34 381.174 C 173.825 379.201 183.947 381.952 188.475 381.056 C 194.581 379.848 199.471 384.117 198.231 385.978 Z" style="paint-order: fill; stroke-width: 1.41169px; fill: url(#color-1); stroke-opacity: 0.96;" transform="matrix(0.948075, 0.318048, -0.318048, 0.948075, 132.454245, -37.973435)"/>
        <path d="M 222.596 395.589 C 217.984 393.695 199.12 401.433 196.144 400.331 C 193.533 399.364 194.362 390.153 197.104 388.466 C 200.906 386.124 202.719 393.06 212.85 385.697 C 217.555 382.274 223.325 393.06 222.596 395.589 Z" style="paint-order: fill; stroke-width: 1.41169px; fill: url(#color-1); stroke-opacity: 0.96;" transform="matrix(0.968901, 0.24745, -0.24745, 0.968901, 103.670033, -39.406737)"/>
      </g>
      <g style="filter: none;" transform="matrix(1.131065, -0.070376, 0.064626, 1.038645, 18.936581, -134.867813)" bx:origin="0.519 -1.72">
        <title>index R</title>
        <path d="M 169.296 370.622 C 168.385 373.115 168.565 379.052 161.13 376.439 C 152.745 373.493 145.248 376.072 143.168 375.579 C 139.941 374.815 141.683 365.112 144.312 363.777 C 147.96 361.928 154.774 366.849 158.765 366.01 C 164.147 364.877 169.934 368.878 169.296 370.622 Z" style="paint-order: fill; stroke-width: 1.35186px; fill: url(#color-1); stroke-opacity: 0.96;" transform="matrix(-0.245896, -0.969296, 0.969296, -0.245896, -165.268093, 611.870565)"/>
        <path d="M 176.969 390.867 C 177.178 393.85 159.037 397.538 156.16 399.097 C 153.685 400.43 153.13 388.131 155.44 386.308 C 158.639 383.788 161.299 388.863 169.672 380.932 C 173.561 377.241 176.792 388.344 176.969 390.867 Z" style="paint-order: fill; stroke-width: 1.35206px; fill: url(#color-1); stroke-opacity: 0.96;" transform="matrix(-0.328665, -0.944447, 0.944447, -0.328665, -148.186521, 674.050776)"/>
        <path d="M 193.285 400.915 C 188.047 405.57 176.198 410.721 173.672 409.606 C 171.454 408.627 170.184 399.305 171.952 397.597 C 174.401 395.228 177.242 402.247 183.54 394.795 C 186.464 391.331 193.324 398.355 193.285 400.915 Z" style="paint-order: fill; stroke-width: 1.35255px; fill: url(#color-1); stroke-opacity: 0.96;" transform="matrix(0.836819, 0.54748, -0.54748, 0.836819, 249.713148, -34.184682)"/>
      </g>
    </g>
    <path d="M 307.192 198.304 C 306.298 232.179 289.935 237.079 263.088 278.35 C 236.24 319.62 237.795 234.765 238.689 200.888 C 239.583 167.013 247.595 165.389 264.772 165.389 C 281.946 165.389 308.086 164.429 307.192 198.304 Z" style="filter: none; paint-order: fill; stroke-width: 1.46908px; fill: url(#color-2); stroke-opacity: 0.96;" transform="matrix(0.20009, 0.979777, -0.979777, 0.20009, 391.631453, -132.051216)" bx:origin="0.557 0.068">
      <title>thigh L</title>
    </path>
    <ellipse style="filter: none; paint-order: fill; stroke-width: 1.46908px; fill: url(#color-2); stroke-opacity: 0.96;" cx="255.923" cy="188.198" rx="81.648" ry="81.648">
      <title>body circle</title>
    </ellipse>
    <path d="M 276.442 216.95 C 276.442 255.144 258.939 260.667 231.169 307.195 C 203.398 353.726 202.66 258.059 202.66 219.865 C 202.66 181.672 211.251 179.839 229.77 179.839 C 248.286 179.839 276.442 178.758 276.442 216.95 Z" style="filter: none; paint-order: fill; stroke-width: 1.46908px; fill: url(#color-2); stroke-opacity: 0.96;" transform="matrix(0.809791, 0.586719, -0.586719, 0.809791, 157.70128, -113.906683)" bx:origin="0.703 0.046">
      <title>thigh R</title>
    </path>
    <path d="M 337.596 120.164 C 337.596 123.274 348.386 133.853 349.482 151.957 C 357.734 167.615 372.383 186.522 374.383 205.971 C 380.392 264.393 332.42 286.169 323.451 286.211 C 307.543 286.286 279.99 136.071 279.99 120.164 C 279.99 104.256 292.886 91.36 308.793 91.36 C 324.7 91.36 337.596 104.256 337.596 120.164 Z" style="filter: none; paint-order: fill; stroke-width: 1.46908px; fill: url(#color-2); stroke-opacity: 0.96;" transform="matrix(0.396993, 0.917822, -0.917822, 0.396993, 370.723716, -186.698015)">
      <title>neck</title>
    </path>
    <path d="M 139.026 239.698 C 126.802 225.246 84.225 170.671 92.914 163.139 C 155.717 108.698 214.411 94.849 260.118 103.823 C 282.558 108.229 302.46 118.323 315.869 132.788 C 316.456 133.32 316.568 133.637 316.646 133.536 C 321.333 127.452 366.186 117.907 378.058 116.043 C 379.671 115.763 381.33 115.617 383.023 115.617 C 398.93 115.617 411.826 128.513 411.826 144.42 C 411.826 160.027 399.412 172.736 383.919 173.209 C 383.916 173.21 383.912 173.21 383.909 173.21 C 379.572 173.35 344.424 213.941 320.301 239.076 C 316.861 243.415 312.309 247.409 308.085 250.996 C 302.138 256.047 297.633 258.194 297.748 258.362 C 285.87 265.284 271.52 270.1 255.919 269.846 C 224.397 269.852 167.348 273.181 139.026 239.698 Z" style="filter: none; paint-order: fill; stroke-width: 1.46908px; fill: url(#color-2); stroke-opacity: 0.96;">
      <title>body</title>
    </path>
    <g transform="matrix(1, 0, 0, 1, -13.075887, 57.240635)">
      <title>foot R</title>
      <path d="M 212.425 315.386 C 210.256 320.706 208.298 338.274 191.795 330.441 C 170.664 326.563 117.067 322.653 104.601 325.812 C 97.973 327.493 92.842 310.291 103.544 311.555 C 141.024 315.982 214.597 310.065 212.425 315.386 Z" style="filter: none; paint-order: fill; stroke-width: 1.46908px; fill: url(#color-1); stroke-opacity: 0.96;" transform="matrix(0.480803, 0.876829, -0.876829, 0.480803, 391.98051, -18.700921)" bx:origin="0.994 0.485">
        <title>leg R</title>
      </path>
      <path d="M 190.27 318.919 C 188.222 325.15 182.612 319.164 170.618 319.164 C 158.625 319.164 143.624 331.462 145.671 325.232 C 147.717 319.001 165.004 307.096 176.998 307.096 C 188.991 307.096 192.316 312.687 190.27 318.919 Z" style="filter: none; paint-order: fill; stroke-width: 1.46908px; fill: url(#color-1); stroke-opacity: 0.96;" transform="matrix(0.998309, -0.058127, 0.058127, 0.998309, -7.703286, 16.761104)" bx:origin="3.06 -8.358">
        <title>heel R</title>
      </path>
      <g style="filter: none;" transform="matrix(1.055493, 0, 0, 0.984945, 39.674213, -107.714844)" bx:origin="1.028 -7.114">
        <title>index R</title>
        <path d="M 190.37 433.923 C 188.858 438.313 166.514 439.738 163.752 438.798 C 161.333 437.981 162.319 430.17 164.921 428.737 C 168.53 426.756 170.07 432.634 179.71 426.39 C 184.187 423.488 191.106 431.78 190.37 433.923 Z" style="paint-order: fill; stroke-width: 1.44006px; fill: url(#color-1); stroke-opacity: 0.96;" transform="matrix(0.983774, 0.17941, -0.17941, 0.983774, 80.443962, -24.630933)"/>
        <path d="M 212.924 431.788 C 213.172 434.107 191.708 436.976 188.305 438.188 C 185.377 439.224 184.721 429.66 187.453 428.243 C 191.238 426.283 194.385 430.229 204.291 424.062 C 208.892 421.192 212.715 429.826 212.924 431.788 Z" style="paint-order: fill; stroke-width: 1.43999px; fill: url(#color-1); stroke-opacity: 0.96;" transform="matrix(0.996426, 0.084469, -0.084469, 0.996426, 37.107919, -15.296686)"/>
        <path d="M 233.709 430.263 C 229.541 428.424 213.742 435.93 211.064 434.866 C 208.712 433.927 208.695 424.989 210.945 423.353 C 214.066 421.08 216.202 427.81 224.428 420.665 C 228.248 417.342 234.138 427.81 233.709 430.263 Z" style="paint-order: fill; stroke-width: 1.44004px; fill: url(#color-1); stroke-opacity: 0.96;" transform="matrix(0.987259, 0.159123, -0.159123, 0.987259, 70.846462, -29.799688)"/>
      </g>
      <g style="filter: none;" transform="matrix(0.958395, 0, 0, 0.984945, 55.543972, -107.714844)" bx:origin="0.619 -7.715">
        <title>medium R</title>
        <path d="M 211.599 442.46 C 211.21 447.461 178.613 449.084 174.118 448.016 C 170.18 447.082 168.344 438.183 171.605 436.553 C 176.129 434.293 180.898 440.991 192.582 433.878 C 198.011 430.571 211.79 440.016 211.599 442.46 Z" style="paint-order: fill; stroke-width: 1.51193px; fill: url(#color-1); stroke-opacity: 0.96;" transform="matrix(0.981017, 0.19392, -0.19392, 0.981017, 89.092645, -28.626044)"/>
        <path d="M 242.18 443.298 C 238.668 448.568 208.408 450.281 205.052 449.155 C 202.112 448.173 206.099 438.791 210.053 437.073 C 215.54 434.691 215.579 441.751 230.558 434.252 C 237.519 430.766 243.895 440.724 242.18 443.298 Z" style="paint-order: fill; stroke-width: 1.51192px; fill: url(#color-1); stroke-opacity: 0.96;" transform="matrix(0.993308, 0.115493, -0.115493, 0.993308, 52.484363, -22.829315)"/>
        <path d="M 275.928 441.09 C 268.511 442.88 243.575 447.537 239.722 446.128 C 236.349 444.898 236.559 437.23 241.079 433.646 C 247.19 428.8 243.309 440.546 262.026 431.173 C 276.323 423.663 282.308 447.716 275.928 441.09 Z" style="paint-order: fill; stroke-width: 1.51191px; fill: url(#color-1); stroke-opacity: 0.96;" transform="matrix(0.999971, -0.007677, 0.007677, 0.999971, -3.355281, 1.993124)"/>
      </g>
      <g style="filter: none;" transform="matrix(1.009508, 0, 0, 0.984945, 47.337929, -107.714844)" bx:origin="0.963 -3.633">
        <title>pinky R</title>
        <path d="M 186.742 446.719 C 184.633 452.272 158.009 454.074 154.8 452.89 C 151.991 451.853 153.729 441.969 156.919 440.159 C 161.348 437.65 162.749 445.087 174.64 437.188 C 180.168 433.517 187.775 444.007 186.742 446.719 Z" style="paint-order: fill; stroke-width: 1.47326px; fill: url(#color-1); stroke-opacity: 0.96;" transform="matrix(0.824619, 0.565688, -0.565688, 0.824619, 281.467801, -18.216829)"/>
        <path d="M 212.623 455.283 C 212.719 458.199 186.835 461.808 182.665 463.322 C 179.077 464.629 179.125 452.605 182.508 450.825 C 187.201 448.362 190.614 453.323 202.979 445.568 C 208.726 441.962 212.545 452.816 212.623 455.283 Z" style="paint-order: fill; stroke-width: 1.47324px; fill: url(#color-1); stroke-opacity: 0.96;" transform="matrix(0.877703, 0.479205, -0.479205, 0.877703, 241.628527, -38.527991)"/>
        <path d="M 237.165 464.551 C 232.352 462.228 213.011 471.714 209.909 470.364 C 207.188 469.177 207.843 457.887 210.641 455.818 C 214.523 452.947 216.551 461.449 226.866 452.423 C 231.657 448.227 237.862 461.449 237.165 464.551 Z" style="paint-order: fill; stroke-width: 1.47326px; fill: url(#color-1); stroke-opacity: 0.96;" transform="matrix(0.836819, 0.54748, -0.54748, 0.836819, 288.756616, -46.686518)"/>
      </g>
    </g>
    <path d="M 317.667 193.084 C 320.393 228.251 290.875 256.76 251.738 256.76 C 224.394 256.76 175.027 258.604 148.399 232.468 C 136.916 221.196 76.678 182.683 83.765 176.808 C 134.981 134.349 205.082 119.429 245.283 126.5 C 264.003 129.793 280.395 136.832 292.841 146.964 C 307.123 158.592 316.21 174.292 317.667 193.084 Z" style="filter: none; paint-order: fill; stroke-width: 1.46908px; fill: url(#color-2); stroke-opacity: 0.96;" transform="matrix(0.98653, -0.163578, 0.163578, 0.98653, -28.510284, 35.369804)">
      <title>wing R</title>
    </path>
  </g>
  <g style="" transform="matrix(1.074966, 0, 0, 1.074966, -30.707804, -1.310054)">
    <title>bird line</title>
    <path d="M 332.957 190.3 C 335.654 224.805 306.423 252.775 267.665 252.775 C 240.586 252.775 191.698 254.585 165.329 228.942 C 153.956 217.882 106.154 176.784 113.172 171.02 C 163.892 129.361 222.061 119.842 261.273 124.972 C 280.509 127.489 297.702 133.483 309.907 143.728 C 323.824 155.41 331.513 171.864 332.957 190.3 Z" style="filter: none; paint-order: fill; stroke-width: 1.46908px; fill: none; stroke: url(#color-5);" transform="matrix(0.970248, 0.242112, -0.242112, 0.970248, 55.539253, -74.93928)" bx:origin="0.998 0.502">
      <title>wing L</title>
    </path>
    <ellipse style="filter: none; paint-order: fill; stroke-width: 1.46908px; fill: none; stroke: url(#color-5);" cx="383.023" cy="144.42" rx="28.803" ry="28.803">
      <title>head circle</title>
    </ellipse>
    <path d="M 337.596 120.164 C 337.596 123.274 348.386 133.853 349.482 151.957 C 357.734 167.615 372.383 186.522 374.383 205.971 C 380.392 264.393 332.42 286.169 323.451 286.211 C 307.543 286.286 279.99 136.071 279.99 120.164 C 279.99 104.256 292.886 91.36 308.793 91.36 C 324.7 91.36 337.596 104.256 337.596 120.164 Z" style="filter: none; paint-order: fill; stroke-width: 1.46908px; fill: none; stroke: url(#color-5);" transform="matrix(0.396993, 0.917822, -0.917822, 0.396993, 370.723716, -186.698015)">
      <title>neck</title>
    </path>
    <g transform="matrix(1, 0, 0, 1, -13.075887, 57.240635)">
      <title>foot L</title>
      <path d="M 280.796 130.623 C 276.181 138.521 272.038 147.323 257.749 139.266 C 238.102 135.275 190.055 133.889 177.273 137.14 C 170.476 138.868 169.264 121.172 179.368 122.472 C 214.748 127.026 285.412 122.727 280.796 130.623 Z" style="filter: none; paint-order: fill; stroke-width: 1.46908px; fill: none; stroke: url(#color-5);" transform="matrix(0.436422, 0.899742, -0.899742, 0.436422, 215.274792, -84.154726)" bx:origin="0.026 0.367">
        <title>leg L</title>
      </path>
      <path d="M 187.576 218.31 C 181.716 222.418 180.54 222.958 168.658 220.169 C 156.775 217.38 152.037 223.212 150.612 219.955 C 149.188 216.7 165.024 208.524 175.08 208.524 C 185.137 208.524 193.435 214.201 187.576 218.31 Z" style="filter: none; paint-order: fill; stroke-width: 1.46908px; fill: none; stroke: url(#color-5);" transform="matrix(0.983113, -0.183001, 0.183001, 0.983113, -17.326848, 43.458342)" bx:origin="1.956 -6.944">
        <title>heel L</title>
      </path>
      <g style="filter: none;" transform="matrix(1.099893, -0.068437, 0.064626, 1.038645, 23.578424, -135.156631)" bx:origin="0.5 -2.345">
        <title>pinky L</title>
        <path d="M 167.234 365.771 C 165.793 368.384 164.401 374.607 158.632 371.868 C 152.126 368.78 144.949 371.484 143.273 370.967 C 140.673 370.165 141.113 362.45 143.743 361.051 C 147.389 359.113 155.62 361.815 159.302 360.935 C 164.266 359.748 168.242 363.942 167.234 365.771 Z" style="paint-order: fill; stroke-width: 1.3716px; fill: none; stroke: url(#color-5);" transform="matrix(-0.423356, -0.905963, 0.905963, -0.423356, -112.129011, 661.513929)"/>
        <path d="M 176.833 383.02 C 177.015 385.398 161.233 388.336 158.73 389.579 C 156.577 390.641 156.094 380.84 158.104 379.387 C 160.887 377.379 163.201 381.423 170.485 375.103 C 173.869 372.162 176.679 381.009 176.833 383.02 Z" style="paint-order: fill; stroke-width: 1.37182px; fill: none; stroke: url(#color-5);" transform="matrix(0.676845, 0.736126, -0.736126, 0.676845, 335.174761, 0.663671)"/>
        <path d="M 197.123 380.036 C 192.296 385.019 181.375 390.533 179.047 389.339 C 177.003 388.291 178.732 382.667 180.362 380.839 C 182.619 378.303 182.337 381.462 188.142 373.484 C 190.837 369.776 197.159 377.295 197.123 380.036 Z" style="paint-order: fill; stroke-width: 1.37151px; fill: none; stroke: url(#color-5);" transform="matrix(0.930945, 0.365159, -0.365159, 0.930945, 152.078084, -42.201898)"/>
      </g>
      <g style="filter: none;" transform="matrix(1.038645, -0.064626, 0.064626, 1.038645, 32.364632, -135.703323)" bx:origin="0.306 -1.931">
        <title>medium L</title>
        <path d="M 179.361 367.394 C 177.96 363.103 152.349 361.71 149.103 362.625 C 146.256 363.427 146.793 371.065 149.679 372.465 C 153.682 374.405 155.902 368.656 166.519 374.761 C 171.452 377.599 180.047 369.491 179.361 367.394 Z" style="paint-order: fill; stroke-width: 1.41169px; fill: none; stroke: url(#color-5);" transform="matrix(-0.609916, -0.792466, 0.792466, -0.609916, -29.39075, 723.246884)"/>
        <path d="M 198.231 385.978 C 196.459 388.638 194.747 394.972 187.651 392.184 C 179.65 389.041 170.823 391.793 168.762 391.267 C 165.564 390.451 166.106 382.598 169.34 381.174 C 173.825 379.201 183.947 381.952 188.475 381.056 C 194.581 379.848 199.471 384.117 198.231 385.978 Z" style="paint-order: fill; stroke-width: 1.41169px; fill: none; stroke: url(#color-5);" transform="matrix(0.948075, 0.318048, -0.318048, 0.948075, 132.454245, -37.973435)"/>
        <path d="M 222.596 395.589 C 217.984 393.695 199.12 401.433 196.144 400.331 C 193.533 399.364 194.362 390.153 197.104 388.466 C 200.906 386.124 202.719 393.06 212.85 385.697 C 217.555 382.274 223.325 393.06 222.596 395.589 Z" style="paint-order: fill; stroke-width: 1.41169px; fill: none; stroke: url(#color-5);" transform="matrix(0.968901, 0.24745, -0.24745, 0.968901, 103.670033, -39.406737)"/>
      </g>
      <g style="filter: none;" transform="matrix(1.131065, -0.070376, 0.064626, 1.038645, 18.936581, -134.867813)" bx:origin="0.519 -1.72">
        <title>index R</title>
        <path d="M 169.296 370.622 C 168.385 373.115 168.565 379.052 161.13 376.439 C 152.745 373.493 145.248 376.072 143.168 375.579 C 139.941 374.815 141.683 365.112 144.312 363.777 C 147.96 361.928 154.774 366.849 158.765 366.01 C 164.147 364.877 169.934 368.878 169.296 370.622 Z" style="paint-order: fill; stroke-width: 1.35186px; fill: none; stroke: url(#color-5);" transform="matrix(-0.245896, -0.969296, 0.969296, -0.245896, -165.268093, 611.870565)"/>
        <path d="M 176.969 390.867 C 177.178 393.85 159.037 397.538 156.16 399.097 C 153.685 400.43 153.13 388.131 155.44 386.308 C 158.639 383.788 161.299 388.863 169.672 380.932 C 173.561 377.241 176.792 388.344 176.969 390.867 Z" style="paint-order: fill; stroke-width: 1.35206px; fill: none; stroke: url(#color-5);" transform="matrix(-0.328665, -0.944447, 0.944447, -0.328665, -148.186521, 674.050776)"/>
        <path d="M 193.285 400.915 C 188.047 405.57 176.198 410.721 173.672 409.606 C 171.454 408.627 170.184 399.305 171.952 397.597 C 174.401 395.228 177.242 402.247 183.54 394.795 C 186.464 391.331 193.324 398.355 193.285 400.915 Z" style="paint-order: fill; stroke-width: 1.35255px; fill: none; stroke: url(#color-5);" transform="matrix(0.836819, 0.54748, -0.54748, 0.836819, 249.713148, -34.184682)"/>
      </g>
    </g>
    <path d="M 307.192 198.304 C 306.298 232.179 289.935 237.079 263.088 278.35 C 236.24 319.62 237.795 234.765 238.689 200.888 C 239.583 167.013 247.595 165.389 264.772 165.389 C 281.946 165.389 308.086 164.429 307.192 198.304 Z" style="filter: none; paint-order: fill; stroke-width: 1.46908px; fill: none; stroke: url(#color-5);" transform="matrix(0.20009, 0.979777, -0.979777, 0.20009, 391.631453, -132.051216)" bx:origin="0.557 0.068">
      <title>thigh L</title>
    </path>
    <ellipse style="filter: none; paint-order: fill; stroke-width: 1.46908px; fill: none; stroke: url(#color-5);" cx="255.923" cy="188.198" rx="81.648" ry="81.648">
      <title>body circle</title>
    </ellipse>
    <path d="M 276.442 216.95 C 276.442 255.144 258.939 260.667 231.169 307.195 C 203.398 353.726 202.66 258.059 202.66 219.865 C 202.66 181.672 211.251 179.839 229.77 179.839 C 248.286 179.839 276.442 178.758 276.442 216.95 Z" style="filter: none; paint-order: fill; stroke-width: 1.46908px; fill: none; stroke: url(#color-5);" transform="matrix(0.809791, 0.586719, -0.586719, 0.809791, 157.70128, -113.906683)" bx:origin="0.703 0.046">
      <title>thigh R</title>
    </path>
    <path d="M 139.026 239.698 C 126.802 225.246 84.225 170.671 92.914 163.139 C 155.717 108.698 214.411 94.849 260.118 103.823 C 282.558 108.229 302.46 118.323 315.869 132.788 C 316.456 133.32 316.568 133.637 316.646 133.536 C 321.333 127.452 366.186 117.907 378.058 116.043 C 379.671 115.763 381.33 115.617 383.023 115.617 C 398.93 115.617 411.826 128.513 411.826 144.42 C 411.826 160.027 399.412 172.736 383.919 173.209 C 383.916 173.21 383.912 173.21 383.909 173.21 C 379.572 173.35 344.424 213.941 320.301 239.076 C 316.861 243.415 312.309 247.409 308.085 250.996 C 302.138 256.047 297.633 258.194 297.748 258.362 C 285.87 265.284 271.52 270.1 255.919 269.846 C 224.397 269.852 167.348 273.181 139.026 239.698 Z" style="filter: none; paint-order: fill; stroke-width: 1.46908px; fill: none; stroke: url(#color-5);">
      <title>body</title>
    </path>
    <g transform="matrix(1, 0, 0, 1, -13.075887, 57.240635)">
      <title>foot R</title>
      <path d="M 212.425 315.386 C 210.256 320.706 208.298 338.274 191.795 330.441 C 170.664 326.563 117.067 322.653 104.601 325.812 C 97.973 327.493 92.842 310.291 103.544 311.555 C 141.024 315.982 214.597 310.065 212.425 315.386 Z" style="filter: none; paint-order: fill; stroke-width: 1.46908px; fill: none; stroke: url(#color-5);" transform="matrix(0.480803, 0.876829, -0.876829, 0.480803, 391.98051, -18.700921)" bx:origin="0.994 0.485">
        <title>leg R</title>
      </path>
      <path d="M 190.27 318.919 C 188.222 325.15 182.612 319.164 170.618 319.164 C 158.625 319.164 143.624 331.462 145.671 325.232 C 147.717 319.001 165.004 307.096 176.998 307.096 C 188.991 307.096 192.316 312.687 190.27 318.919 Z" style="filter: none; paint-order: fill; stroke-width: 1.46908px; fill: none; stroke: url(#color-5);" transform="matrix(0.998309, -0.058127, 0.058127, 0.998309, -7.703286, 16.761104)" bx:origin="3.06 -8.358">
        <title>heel R</title>
      </path>
      <g style="filter: none;" transform="matrix(1.055493, 0, 0, 0.984945, 39.674213, -107.714844)" bx:origin="1.028 -7.114">
        <title>index R</title>
        <path d="M 190.37 433.923 C 188.858 438.313 166.514 439.738 163.752 438.798 C 161.333 437.981 162.319 430.17 164.921 428.737 C 168.53 426.756 170.07 432.634 179.71 426.39 C 184.187 423.488 191.106 431.78 190.37 433.923 Z" style="paint-order: fill; stroke-width: 1.44006px; fill: none; stroke: url(#color-5);" transform="matrix(0.983774, 0.17941, -0.17941, 0.983774, 80.443962, -24.630933)"/>
        <path d="M 212.924 431.788 C 213.172 434.107 191.708 436.976 188.305 438.188 C 185.377 439.224 184.721 429.66 187.453 428.243 C 191.238 426.283 194.385 430.229 204.291 424.062 C 208.892 421.192 212.715 429.826 212.924 431.788 Z" style="paint-order: fill; stroke-width: 1.43999px; fill: none; stroke: url(#color-5);" transform="matrix(0.996426, 0.084469, -0.084469, 0.996426, 37.107919, -15.296686)"/>
        <path d="M 233.709 430.263 C 229.541 428.424 213.742 435.93 211.064 434.866 C 208.712 433.927 208.695 424.989 210.945 423.353 C 214.066 421.08 216.202 427.81 224.428 420.665 C 228.248 417.342 234.138 427.81 233.709 430.263 Z" style="paint-order: fill; stroke-width: 1.44004px; fill: none; stroke: url(#color-5);" transform="matrix(0.987259, 0.159123, -0.159123, 0.987259, 70.846462, -29.799688)"/>
      </g>
      <g style="filter: none;" transform="matrix(0.958395, 0, 0, 0.984945, 55.543972, -107.714844)" bx:origin="0.619 -7.715">
        <title>medium R</title>
        <path d="M 211.599 442.46 C 211.21 447.461 178.613 449.084 174.118 448.016 C 170.18 447.082 168.344 438.183 171.605 436.553 C 176.129 434.293 180.898 440.991 192.582 433.878 C 198.011 430.571 211.79 440.016 211.599 442.46 Z" style="paint-order: fill; stroke-width: 1.51193px; fill: none; stroke: url(#color-5);" transform="matrix(0.981017, 0.19392, -0.19392, 0.981017, 89.092645, -28.626044)"/>
        <path d="M 242.18 443.298 C 238.668 448.568 208.408 450.281 205.052 449.155 C 202.112 448.173 206.099 438.791 210.053 437.073 C 215.54 434.691 215.579 441.751 230.558 434.252 C 237.519 430.766 243.895 440.724 242.18 443.298 Z" style="paint-order: fill; stroke-width: 1.51192px; fill: none; stroke: url(#color-5);" transform="matrix(0.993308, 0.115493, -0.115493, 0.993308, 52.484363, -22.829315)"/>
        <path d="M 275.928 441.09 C 268.511 442.88 243.575 447.537 239.722 446.128 C 236.349 444.898 236.559 437.23 241.079 433.646 C 247.19 428.8 243.309 440.546 262.026 431.173 C 276.323 423.663 282.308 447.716 275.928 441.09 Z" style="paint-order: fill; stroke-width: 1.51191px; fill: none; stroke: url(#color-5);" transform="matrix(0.999971, -0.007677, 0.007677, 0.999971, -3.355281, 1.993124)"/>
      </g>
      <g style="filter: none;" transform="matrix(1.009508, 0, 0, 0.984945, 47.337929, -107.714844)" bx:origin="0.963 -3.633">
        <title>pinky R</title>
        <path d="M 186.742 446.719 C 184.633 452.272 158.009 454.074 154.8 452.89 C 151.991 451.853 153.729 441.969 156.919 440.159 C 161.348 437.65 162.749 445.087 174.64 437.188 C 180.168 433.517 187.775 444.007 186.742 446.719 Z" style="paint-order: fill; stroke-width: 1.47326px; fill: none; stroke: url(#color-5);" transform="matrix(0.824619, 0.565688, -0.565688, 0.824619, 281.467801, -18.216829)"/>
        <path d="M 212.623 455.283 C 212.719 458.199 186.835 461.808 182.665 463.322 C 179.077 464.629 179.125 452.605 182.508 450.825 C 187.201 448.362 190.614 453.323 202.979 445.568 C 208.726 441.962 212.545 452.816 212.623 455.283 Z" style="paint-order: fill; stroke-width: 1.47324px; fill: none; stroke: url(#color-5);" transform="matrix(0.877703, 0.479205, -0.479205, 0.877703, 241.628527, -38.527991)"/>
        <path d="M 237.165 464.551 C 232.352 462.228 213.011 471.714 209.909 470.364 C 207.188 469.177 207.843 457.887 210.641 455.818 C 214.523 452.947 216.551 461.449 226.866 452.423 C 231.657 448.227 237.862 461.449 237.165 464.551 Z" style="paint-order: fill; stroke-width: 1.47326px; fill: none; stroke: url(#color-5);" transform="matrix(0.836819, 0.54748, -0.54748, 0.836819, 288.756616, -46.686518)"/>
      </g>
    </g>
    <path d="M 317.667 193.084 C 320.393 228.251 290.875 256.76 251.738 256.76 C 224.394 256.76 175.027 258.604 148.399 232.468 C 136.916 221.196 76.678 182.683 83.765 176.808 C 134.981 134.349 205.082 119.429 245.283 126.5 C 264.003 129.793 280.395 136.832 292.841 146.964 C 307.123 158.592 316.21 174.292 317.667 193.084 Z" style="filter: none; paint-order: fill; stroke-width: 1.46908px; fill: none; stroke: url(#color-5);" transform="matrix(0.98653, -0.163578, 0.163578, 0.98653, -28.510284, 35.369804)">
      <title>wing R</title>
    </path>
  </g>
  <g style="filter: none;" transform="matrix(1.074966, 0, 0, 1.074966, -30.707804, -1.310054)">
    <title>bird flair</title>
    <path d="M 431.737 138.861 C 431.109 140.538 425.908 141.897 420.122 141.897 C 414.335 141.897 410.153 140.538 410.781 138.861 C 411.41 137.184 416.61 135.825 422.397 135.825 C 428.184 135.825 432.366 137.184 431.737 138.861 Z" style="filter: none; paint-order: fill; stroke-width: 1.46908px; fill: url(#color-0); stroke-opacity: 0.96; stroke: url(#color-5);" transform="matrix(-0.24482, -0.969569, 0.969569, -0.24482, 377.030724, 571.651856)" bx:origin="0.02 0.522">
      <title>flair</title>
    </path>
    <path d="M 404.212 155.317 C 403.665 155.37 407.025 152.881 408.992 148.466 C 411.659 142.481 410.405 137.722 413.656 141.563 C 417.083 145.612 417.422 145.265 420.565 147.085 C 430.082 152.598 435.704 159.966 433.111 162.829 C 431.89 164.178 429.919 160.753 425.627 159.635 C 420.919 158.409 417.003 158.983 410.939 159.766 C 408.972 160.021 406.732 155.072 404.212 155.317 Z" style="filter: none; paint-order: fill; stroke-width: 1.46908px; fill: url(#color-0); stroke-opacity: 0.96; stroke: url(#color-5);">
      <title>becco</title>
    </path>
    <ellipse style="filter: none; fill: rgba(32, 4, 4, 0.25); paint-order: stroke; stroke-width: 2.93816px; stroke: url(#color-5);" cx="392.765" cy="138.276" rx="3.287" ry="3.287">
      <title>eye</title>
    </ellipse>
  </g>
  <rect width="22.146" height="35.529" style="fill: url(#gradient-0); stroke: url(#gradient-1);" transform="matrix(0, 0, 0, 1, 0, 0)" bx:origin="NaN NaN"/>
</svg>